<?xml version="1.0" encoding="UTF-8" standalone="no"?>
<svg
   xmlns:svg="http://www.w3.org/2000/svg"
   xmlns="http://www.w3.org/2000/svg"
   xmlns:xlink="http://www.w3.org/1999/xlink"
   width="32"
   height="28"
   version="1.1"
>
  <defs>
    <rect
       id="a"
       x="0"
       y="0"
       width="26"
       height="22"
       rx="6" />
    <mask
       id="b"
       maskContentUnits="userSpaceOnUse"
       maskUnits="objectBoundingBox"
       x="0"
       y="0"
       width="26"
       height="22"
       fill="#fff">
      <use
         xlink:href="#a"
         id="use31" />
    </mask>
  </defs>
  <g
     fill="none"
     fill-rule="evenodd"
     id="g42">
    <rect
       fill="#97E6F5"
       x="6"
       y="6"
       width="26"
       height="22"
       rx="6"
       id="rect36"
       style="fill:#eb563a;fill-opacity:0.30000001" />
    <use
       stroke="#0C226E"
       mask="url(#b)"
       stroke-width="6"
       xlink:href="#a"
       id="use38"
       style="stroke:#eb563a;stroke-opacity:1" />
    <path
       d="M16.564 7.027l-3.53 3.53a2.006 2.006 0 01-2.836.003l-.49-.49a1.01 1.01 0 00-1.43-.015 1.01 1.01 0 00.015 1.428l1.907 1.908c.798.797 2.077.81 2.858.028l4.95-4.949a1.01 1.01 0 00-.015-1.429 1.01 1.01 0 00-1.429-.014z"
       fill="#0C226E"
       fill-rule="nonzero"
       id="path40"
       style="fill:#eb563a;fill-opacity:1" />
  </g>
</svg>
